<svg xmlns="http://www.w3.org/2000/svg" viewBox="0 0 178.04 178.04"><defs><style>.cls-1{fill:#38c8ce;}.cls-2{fill:#2cb7b7;}.cls-3{fill:#ddb6a2;}.cls-4{fill:#4d4d4d;}.cls-5{fill:#fff;}.cls-6{fill:#eac4b0;}</style></defs><title>Asset 4</title><g id="Layer_2" data-name="Layer 2"><g id="Layer_1-2" data-name="Layer 1"><path class="cls-1" d="M178,89a88.93,88.93,0,1,1-2.18-19.66A89,89,0,0,1,178,89Z"/><path class="cls-2" d="M178,89A89.07,89.07,0,0,1,57.33,172.23L36.3,110l96.87-70.27,42.69,29.68A89,89,0,0,1,178,89Z"/><path class="cls-3" d="M46.15,88v25.79H43.9a9.54,9.54,0,0,1-9.53-9.53V97.5A9.54,9.54,0,0,1,43.9,88Z"/><path class="cls-3" d="M144.45,97.5v6.73a9.54,9.54,0,0,1-9.53,9.53h-2.32V88h2.32A9.54,9.54,0,0,1,144.45,97.5Z"/><path class="cls-4" d="M132.59,94.15v2.26h-5.46l.07-1.19c0-.17.84-16.53-3.93-21.58a3.84,3.84,0,0,0-2.88-1.32h-2.05l1.1-1.73c.05-.08,4.74-7.59,2.52-13.93a3.76,3.76,0,0,0-.14-.38l2.1-.83a11.54,11.54,0,0,1,.57,1.87c1.16,5.19-1,10.5-2.32,13a6.34,6.34,0,0,1,2.75,1.77c4.67,4.93,4.7,18,4.59,22.06Z"/><path class="cls-4" d="M133.17,39.68c-8.3-12.15-29.31-20.35-48.85-19.08-13.08.85-21.91,4.79-26.25,11.7a19.74,19.74,0,0,0-2.9,9.25,22.67,22.67,0,0,0,0,2.66,27.82,27.82,0,0,0,1.41,7.63c-2.93,3.28-3.82,7.7-2.58,12.84a26.48,26.48,0,0,0,2.11,5.62,6.39,6.39,0,0,0-2.75,1.77c-4.67,4.94-4.7,18-4.59,22.07H45.24v2.26h5.85L51,95.22c-.26-4.58,0-17.39,3.93-21.59a3.84,3.84,0,0,1,2.89-1.32h2.05l-1.11-1.74c-.07-.11-6.38-10.21-.81-16.94,3.68,2.08,14.06,2,36.19,1.68l9.94-.14A76.89,76.89,0,0,1,122,56.65c.92.2,1.76.43,2.53.66,6.51,2,5.94,4.91,6.14,5.36,0,0,2-.17,2-.17l-1,5.91,3.08-5.7.11-.25C138.49,54.48,137.91,46.6,133.17,39.68ZM105.75,52.9l-1.67,0-10,.14c-19.11.29-33,.5-35.32-1.56-.53-1.44-3.52-10.51,1.17-18,3.93-6.27,12.17-9.85,24.48-10.66,18.81-1.22,38.95,6.56,46.85,18.11a19.53,19.53,0,0,1,2.22,18.82C131.14,57.06,124.43,52.9,105.75,52.9Z"/><path class="cls-4" d="M132.59,62.44V94.15h-3.1c.11-4,.08-17.13-4.59-22.06a6.34,6.34,0,0,0-2.75-1.77c1.28-2.5,3.48-7.82,2.32-13C131,59.29,132.4,62,132.59,62.44Z"/><path class="cls-4" d="M54,64.69a26.48,26.48,0,0,0,2.11,5.62,6.39,6.39,0,0,0-2.75,1.77c-4.67,4.94-4.7,18-4.59,22.07H45.37V62.24a21.53,21.53,0,0,1,9.76-18,27.82,27.82,0,0,0,1.41,7.63C53.61,55.13,52.72,59.55,54,64.69Z"/><path class="cls-4" d="M133.54,59.77c-2.39-2.72-9.1-6.88-27.79-6.88l-1.67,0-10,.14c-19.11.29-33,.5-35.32-1.56-.53-1.44-3.52-10.51,1.17-18,3.93-6.27,12.17-9.85,24.48-10.66,18.81-1.22,38.95,6.56,46.85,18.11A19.53,19.53,0,0,1,133.54,59.77Z"/><path class="cls-5" d="M69.77,78.92A15.51,15.51,0,1,0,85.28,94.44,15.53,15.53,0,0,0,69.77,78.92Zm0,28.76A13.25,13.25,0,1,1,83,94.44,13.27,13.27,0,0,1,69.77,107.69Z"/><path class="cls-5" d="M106,78.92a15.51,15.51,0,1,0,15.52,15.51A15.53,15.53,0,0,0,106,78.92Zm0,28.76a13.25,13.25,0,1,1,13.26-13.25A13.27,13.27,0,0,1,106,107.69Z"/><circle class="cls-4" cx="114.14" cy="89.39" r="2.55"/><circle class="cls-4" cx="76.16" cy="89.39" r="2.55"/><path class="cls-4" d="M90.12,143.58c-3.35-2.47-6.61-3.85-3.58-8q2.31-1.93-.4-4.66c-.39-.2-.77-.43-1.14-.67s-.57-.53-.71-1c-.45-1.57,2.12-4.09,2.89-5.24s2.76-.08,1.95,1.14c-.48.73-2.12,2.41-2.29,3.14s.5.63,1.32,1.32a5.26,5.26,0,0,1,1.92,2.86c.31,1.52-.36,2.62-1.2,3.8-1,1.34-1.76,1.36-.43,3.23a13.24,13.24,0,0,0,2.81,2.08C92.41,142.49,91.28,144.44,90.12,143.58Z"/><path class="cls-4" d="M73.22,68.27a1.12,1.12,0,0,1-1.59.12,6,6,0,0,0-4.07-1.29,6,6,0,0,0-4,2.74,1.13,1.13,0,0,1-.91.47,1.08,1.08,0,0,1-.66-.23,1.12,1.12,0,0,1-.25-1.57A7.46,7.46,0,0,1,73.1,66.68,1.12,1.12,0,0,1,73.22,68.27Z"/><path class="cls-6" d="M127.13,96.41l.07-1.19c0-.17.84-16.53-3.93-21.58a3.84,3.84,0,0,0-2.88-1.32h-2.05l1.1-1.73c.05-.08,4.74-7.59,2.52-13.93a76.89,76.89,0,0,0-17.85-1.48l-9.94.14c-22.13.33-32.51.4-36.19-1.68-5.57,6.73.74,16.83.81,16.94l1.11,1.74H57.84A3.84,3.84,0,0,0,55,73.63c-4,4.2-4.18,17-3.93,21.59l.06,1.19H45.37v22a36.9,36.9,0,0,0,36.86,36.86H95.72a36.91,36.91,0,0,0,36.87-36.87v-22ZM103.67,66.68A7.45,7.45,0,0,1,115,68.51a1.13,1.13,0,0,1-.91,1.8,1.14,1.14,0,0,1-.91-.47,5.22,5.22,0,0,0-8.09-1.44,1.13,1.13,0,0,1-1.59-.14A1.11,1.11,0,0,1,103.67,66.68ZM61.73,68.51A7.46,7.46,0,0,1,73.1,66.68a1.13,1.13,0,1,1-1.47,1.71,6,6,0,0,0-4.07-1.29,6,6,0,0,0-4,2.74,1.13,1.13,0,0,1-.91.47,1.08,1.08,0,0,1-.66-.23A1.12,1.12,0,0,1,61.73,68.51Zm8,41.44A15.51,15.51,0,1,1,85.28,94.44,15.53,15.53,0,0,1,69.77,109.95Zm20.35,33.63c-3.35-2.47-6.61-3.85-3.58-8q2.31-1.93-.4-4.66c-.39-.2-.77-.43-1.14-.67s-.57-.53-.71-1c-.45-1.57,2.12-4.09,2.89-5.24s2.76-.08,1.95,1.14c-.48.73-2.12,2.41-2.29,3.14s.5.63,1.32,1.32a5.26,5.26,0,0,1,1.92,2.86c.31,1.52-.36,2.62-1.2,3.8-1,1.34-1.76,1.36-.43,3.23a13.24,13.24,0,0,0,2.81,2.08C92.41,142.49,91.28,144.44,90.12,143.58ZM106,109.95a15.51,15.51,0,1,1,15.52-15.51A15.53,15.53,0,0,1,106,109.95Z"/><path class="cls-5" d="M106,81.18a13.25,13.25,0,1,0,13.26,13.25A13.27,13.27,0,0,0,106,81.18Zm8.14,10.76a2.55,2.55,0,1,1,2.55-2.55A2.55,2.55,0,0,1,114.14,91.94Z"/><path class="cls-5" d="M69.77,81.18A13.25,13.25,0,1,0,83,94.44,13.27,13.27,0,0,0,69.77,81.18Zm6.39,10.76a2.55,2.55,0,1,1,2.55-2.55A2.55,2.55,0,0,1,76.16,91.94Z"/><path class="cls-4" d="M114.81,70.08a1.12,1.12,0,0,1-.67.23,1.14,1.14,0,0,1-.91-.47,5.22,5.22,0,0,0-8.09-1.44,1.13,1.13,0,0,1-1.59-.14,1.11,1.11,0,0,1,.12-1.58A7.45,7.45,0,0,1,115,68.51,1.12,1.12,0,0,1,114.81,70.08Z"/></g></g></svg>