<svg xmlns="http://www.w3.org/2000/svg" viewBox="0 0 178.04 178.04"><defs><style>.cls-1{fill:#956b84;}.cls-2{fill:#75506a;}.cls-3{fill:#fe4d4d;}.cls-4{fill:#eac4b0;}.cls-5{fill:#4d4d4d;}.cls-6{fill:#ddb6a2;}.cls-7{fill:#2cb7b7;}.cls-8{fill:#fff;}</style></defs><title>Asset 5</title><g id="Layer_2" data-name="Layer 2"><g id="Layer_1-2" data-name="Layer 1"><path class="cls-1" d="M178,89a88.93,88.93,0,1,1-2.18-19.66A89,89,0,0,1,178,89Z"/><path class="cls-2" d="M178,89A89.07,89.07,0,0,1,57.33,172.23L36.3,110,124.92,39.9l50.94,29.46A89,89,0,0,1,178,89Z"/><path class="cls-3" d="M133.06,64.27V93.18a19.39,19.39,0,0,0-2.17-4.28V64.27a20.72,20.72,0,0,0-6-14.51c-.28-.29-.57-.57-.87-.84l1.45-1.61c.17.15.34.31.51.48A22.9,22.9,0,0,1,133.06,64.27Z"/><path class="cls-3" d="M55.8,47.47a19.58,19.58,0,0,0-2.61,2.24l-.09.07c-.2.2-.4.41-.58.62a20.5,20.5,0,0,0-5.36,13.87V89.63a19.15,19.15,0,0,0-2.17,5V64.27a22.64,22.64,0,0,1,6.52-15.94h0l.09-.09a.1.1,0,0,1,.05,0h0l0,0,0,0h0l0,0a20.5,20.5,0,0,1,2.65-2.27l0,0,0,0,.06,0Z"/><path class="cls-4" d="M133.06,106.39v11.84a37.59,37.59,0,0,1-37.54,37.55h-13A37.59,37.59,0,0,1,45,118.24V104.9A19.32,19.32,0,0,0,47.16,110v8.28a35.42,35.42,0,0,0,35.39,35.39h13a35.42,35.42,0,0,0,35.38-35.39v-7.55A19.19,19.19,0,0,0,133.06,106.39Z"/><path class="cls-3" d="M127.51,85a18.92,18.92,0,0,0-2.44-1.81c-.55-3.25-1.49-6.31-3.11-8a3.7,3.7,0,0,0-2.77-1.27,1.09,1.09,0,0,1-.92-1.66c.07-.11,6.56-10.54.15-17a1.19,1.19,0,0,1-.23-.33,1.11,1.11,0,0,1-.09-.43V53.11h2.17v1c2.94,3.16,3.85,7.48,2.64,12.51a25.22,25.22,0,0,1-2,5.39,6,6,0,0,1,2.64,1.7C125.84,76.17,127,80.7,127.51,85Z"/><path class="cls-3" d="M60.9,73.38a1.09,1.09,0,0,1-1,.56,3.68,3.68,0,0,0-2.77,1.27c-1.49,1.58-2.44,4.44-3,7.6a18.73,18.73,0,0,0-2.47,1.67c.56-4.17,1.69-8.41,3.91-10.75A6.08,6.08,0,0,1,58.24,72a25.22,25.22,0,0,1-2-5.39c-1.16-4.81-.38-9,2.25-12.07a10.09,10.09,0,0,1,.7-.77l.47.47H61v.3a1.08,1.08,0,0,1-.32.77l-.35.37c-5.83,6.46.43,16.49.5,16.59A1.09,1.09,0,0,1,60.9,73.38Z"/><path class="cls-3" d="M124.92,39.9c-2.84-4.78-7.84-8.62-14.1-10.82-5.9-2.08-12.2-2.63-18.28-3.16-1.57-.14-3.15-.27-4.72-.44-3.92-.4-7.88-1.15-10.31-3.75a11.77,11.77,0,0,1-2.66-7.29c-.11-1.92.45-4.92,2.45-5.3A1.09,1.09,0,0,0,78.18,8a1.08,1.08,0,0,0-1-1c-4.49-.4-8.25,3-10,6.45S65.31,20.51,65.11,24c-.17,3.16-.33,6.14-1.55,9a38.11,38.11,0,0,1-9.08,12.73l0,0,0,0C53.18,47,52,47.87,51.78,48.07l0,0h0l0,0,0,0h0a.1.1,0,0,0-.05,0l-.09.09h0a1.05,1.05,0,0,0-.22.68,1.08,1.08,0,0,0,.46.87l.77.53,6,4.15.84.58.12.07.92.47c5.77,2.85,15.19,6,28.58,6H89c14.17,0,23.53-3.49,29.15-6.72.55-.32,1.05-.63,1.53-.93l.55-.32a15.24,15.24,0,0,0,4.66-4,8.45,8.45,0,0,0,1.08-2,7.43,7.43,0,0,0,.25-.77A9.11,9.11,0,0,0,124.92,39.9ZM118.6,52.2C113.4,55.54,104,59.52,89,59.54h-.09c-13.63,0-23-3.37-28.44-6.21l-6.33-4.41c.49-.41,1.1-.93,1.73-1.54a40.25,40.25,0,0,0,9.66-13.52c1.36-3.24,1.54-6.55,1.71-9.75.19-3.41.36-6.63,1.88-9.71a10.37,10.37,0,0,1,4.3-4.5,10.07,10.07,0,0,0-.77,4.67,13.89,13.89,0,0,0,3.24,8.64c2.91,3.13,7.33,4,11.67,4.43,1.58.16,3.16.3,4.75.44,6,.52,12.11,1.05,17.76,3s10.37,5.53,12.95,9.88a7,7,0,0,1,1.11,5.44Q123.35,49.51,118.6,52.2Z"/><path class="cls-3" d="M124.16,46.45q-.81,3.07-5.57,5.75C113.4,55.54,104,59.52,89,59.54h-.09c-13.63,0-23-3.37-28.44-6.21l-6.33-4.41c.49-.41,1.1-.93,1.73-1.54a40.25,40.25,0,0,0,9.66-13.52c1.36-3.24,1.54-6.55,1.71-9.75.19-3.41.36-6.63,1.88-9.71a10.37,10.37,0,0,1,4.3-4.5,10.07,10.07,0,0,0-.77,4.67,13.89,13.89,0,0,0,3.24,8.64c2.91,3.13,7.33,4,11.67,4.43,1.58.16,3.16.3,4.75.44,6,.52,12.11,1.05,17.76,3s10.37,5.53,12.95,9.88A7,7,0,0,1,124.16,46.45Z"/><path class="cls-5" d="M103.09,131.8c-.06.38-1.54,9.41-14.34,9.41s-14.29-9-14.35-9.41l-2.14.3c0,.12,1.75,11.27,16.49,11.27s16.47-11.16,16.49-11.27Z"/><path class="cls-3" d="M56.22,66.63a25.22,25.22,0,0,0,2,5.39,6.08,6.08,0,0,0-2.64,1.7c-2.22,2.34-3.34,6.59-3.91,10.75a19.69,19.69,0,0,0-3.35,3.41,17.68,17.68,0,0,0-1.18,1.75V64.27A20.5,20.5,0,0,1,52.52,50.4l6,4.15C55.84,57.68,55.07,61.82,56.22,66.63Z"/><path class="cls-3" d="M130.89,64.27V88.89c-.23-.35-.47-.69-.72-1a19,19,0,0,0-2.66-2.83h0c-.53-4.35-1.67-8.88-4-11.32a6,6,0,0,0-2.64-1.7,25.22,25.22,0,0,0,2-5.39c1.21-5,.3-9.35-2.64-12.51v-.38a15.24,15.24,0,0,0,4.66-4A20.72,20.72,0,0,1,130.89,64.27Z"/><path class="cls-6" d="M144.45,98.12v6.46a9.16,9.16,0,0,1-9.15,9.15h-2.24v-7.34a19.59,19.59,0,0,0,0-13.22V89h2.24A9.17,9.17,0,0,1,144.45,98.12Z"/><path class="cls-6" d="M45,94.66a19.65,19.65,0,0,0,0,10.24v8.82H42.84a9.16,9.16,0,0,1-9.15-9.15V98.12A9.17,9.17,0,0,1,42.84,89H45Z"/><circle cx="63.5" cy="102.31" r="2.45"/><path d="M115,99.86a2.45,2.45,0,1,0,2.45,2.45A2.45,2.45,0,0,0,115,99.86Zm0,0a2.45,2.45,0,1,0,2.45,2.45A2.45,2.45,0,0,0,115,99.86Zm0,0a2.45,2.45,0,1,0,2.45,2.45A2.45,2.45,0,0,0,115,99.86Zm0,0a2.45,2.45,0,1,0,2.45,2.45A2.45,2.45,0,0,0,115,99.86Zm0,0a2.45,2.45,0,1,0,2.45,2.45A2.45,2.45,0,0,0,115,99.86Zm0,0a2.45,2.45,0,1,0,2.45,2.45A2.45,2.45,0,0,0,115,99.86Zm0,0a2.45,2.45,0,1,0,2.45,2.45A2.45,2.45,0,0,0,115,99.86Zm0,0a2.45,2.45,0,1,0,2.45,2.45A2.45,2.45,0,0,0,115,99.86Zm0,0a2.45,2.45,0,1,0,2.45,2.45A2.45,2.45,0,0,0,115,99.86Zm0,0a2.45,2.45,0,1,0,2.45,2.45A2.45,2.45,0,0,0,115,99.86Zm0,0a2.45,2.45,0,1,0,2.45,2.45A2.45,2.45,0,0,0,115,99.86Zm0,0a2.45,2.45,0,1,0,2.45,2.45A2.45,2.45,0,0,0,115,99.86Zm0,0a2.45,2.45,0,1,0,2.45,2.45A2.45,2.45,0,0,0,115,99.86Zm0,0a2.45,2.45,0,1,0,2.45,2.45A2.45,2.45,0,0,0,115,99.86Zm0,0a2.45,2.45,0,1,0,2.45,2.45A2.45,2.45,0,0,0,115,99.86Zm0,0a2.45,2.45,0,1,0,2.45,2.45A2.45,2.45,0,0,0,115,99.86Zm0,0a2.45,2.45,0,1,0,2.45,2.45A2.45,2.45,0,0,0,115,99.86Zm0,0a2.45,2.45,0,1,0,2.45,2.45A2.45,2.45,0,0,0,115,99.86Zm0,0a2.45,2.45,0,1,0,2.45,2.45A2.45,2.45,0,0,0,115,99.86Zm0,0a2.45,2.45,0,1,0,2.45,2.45A2.45,2.45,0,0,0,115,99.86Z"/><path class="cls-7" d="M133.06,93.18a19.39,19.39,0,0,0-2.17-4.28c-.23-.35-.47-.69-.72-1a19,19,0,0,0-2.66-2.83h0a18.92,18.92,0,0,0-2.44-1.81,19.5,19.5,0,0,0-5.59-2.41,15.36,15.36,0,0,0-7.5-3.68,11.24,11.24,0,0,0-19.22,5.32h-7a11.24,11.24,0,0,0-19.22-5.32A15.38,15.38,0,0,0,59,80.82a19.37,19.37,0,0,0-4.87,2,18.73,18.73,0,0,0-2.47,1.67,19.69,19.69,0,0,0-3.35,3.41,17.68,17.68,0,0,0-1.18,1.75,19.15,19.15,0,0,0-2.17,5,19.65,19.65,0,0,0,0,10.24A19.32,19.32,0,0,0,47.16,110a19.58,19.58,0,0,0,36.3-10.18c0-.42,0-.84,0-1.26.06-.15.13-.3.19-.45h11.3l.19.45q0,.63,0,1.26a19.57,19.57,0,0,0,35.83,10.9,19.19,19.19,0,0,0,2.17-4.3,19.59,19.59,0,0,0,0-13.22ZM63.89,112.66A12.88,12.88,0,0,1,51.31,97.07a12.57,12.57,0,0,1,2-4.64s0,0,0,0a12.87,12.87,0,1,1,10.55,20.23Zm50.75,0a12.87,12.87,0,1,1,11.16-19.29h0a12.63,12.63,0,0,1,1.42,3.69,12.88,12.88,0,0,1-12.58,15.59Z"/><path class="cls-4" d="M114.63,119.36A19.57,19.57,0,0,1,95.06,99.78q0-.63,0-1.26l-.19-.45H83.61c-.06.15-.12.3-.19.45,0,.42,0,.84,0,1.26A19.58,19.58,0,0,1,47.16,110v8.28a35.42,35.42,0,0,0,35.39,35.39h13a35.42,35.42,0,0,0,35.38-35.39v-7.55A19.55,19.55,0,0,1,114.63,119.36Zm-25.89,24c-14.75,0-16.48-11.16-16.49-11.27l2.14-.3c.06.38,1.54,9.41,14.35,9.41s14.28-9,14.34-9.41l2.14.3C105.22,132.22,103.48,143.38,88.74,143.38Z"/><path class="cls-4" d="M125.07,83.23a19.5,19.5,0,0,0-5.59-2.41,15.36,15.36,0,0,0-7.5-3.68,11.24,11.24,0,0,0-19.22,5.32h-7a11.24,11.24,0,0,0-19.22-5.32A15.38,15.38,0,0,0,59,80.82a19.37,19.37,0,0,0-4.87,2c.57-3.16,1.52-6,3-7.6a3.68,3.68,0,0,1,2.77-1.27,1.08,1.08,0,0,0,.92-1.66c-.07-.11-6.33-10.14-.5-16.59,5.77,2.85,15.19,6,28.58,6H89c14.17,0,23.53-3.49,29.15-6.72a1.19,1.19,0,0,0,.23.33c6.41,6.42-.08,16.85-.15,17a1.09,1.09,0,0,0,.92,1.66A3.7,3.7,0,0,1,122,75.21C123.57,76.92,124.52,80,125.07,83.23Z"/><path class="cls-8" d="M63.89,86.92a12.84,12.84,0,0,0-10.55,5.51s0,0,0,0a12.57,12.57,0,0,0-2,4.64A12.87,12.87,0,1,0,63.89,86.92Zm-.39,17.84a2.45,2.45,0,1,1,2.45-2.45A2.45,2.45,0,0,1,63.5,104.75Z"/><circle class="cls-8" cx="63.5" cy="102.31" r="2.45"/><circle class="cls-5" cx="63.5" cy="102.31" r="2.45"/><path class="cls-8" d="M127.21,97.07a12.63,12.63,0,0,0-1.42-3.69h0a12.84,12.84,0,1,0,1.42,3.7ZM115,104.75a2.45,2.45,0,1,1,2.45-2.45A2.45,2.45,0,0,1,115,104.75Z"/><circle class="cls-8" cx="115.02" cy="102.31" r="2.45"/><circle class="cls-5" cx="115.02" cy="102.31" r="2.45"/></g></g></svg>