<svg xmlns="http://www.w3.org/2000/svg" viewBox="0 0 178.04 178.04"><defs><style>.cls-1{fill:#ffcc87;}.cls-2{fill:#e2a461;}.cls-3{fill:#fff;}.cls-4{fill:#573649;}.cls-5{fill:#4d4d4d;}.cls-6{fill:#eac4b0;}.cls-7{fill:#ddb6a2;}.cls-8{fill:none;}.cls-9{fill:#fe4d4d;}</style></defs><title>Asset 3</title><g id="Layer_2" data-name="Layer 2"><g id="Layer_1-2" data-name="Layer 1"><path class="cls-1" d="M178,89a88.93,88.93,0,1,1-2.18-19.66A89,89,0,0,1,178,89Z"/><path class="cls-2" d="M178,89A89.07,89.07,0,0,1,57.33,172.23l-14.85-26.5,82.7-109,50.68,32.63A89,89,0,0,1,178,89Z"/><path class="cls-3" d="M72.18,77.17a15,15,0,1,0,15,15A15,15,0,0,0,72.18,77.17Zm0,27.81A12.82,12.82,0,1,1,85,92.16,12.83,12.83,0,0,1,72.18,105Z"/><path class="cls-3" d="M107.2,77.17a15,15,0,1,0,15,15A15,15,0,0,0,107.2,77.17Zm0,27.81A12.82,12.82,0,1,1,120,92.16,12.83,12.83,0,0,1,107.2,105Z"/><path class="cls-4" d="M135.36,148.74a7.15,7.15,0,0,1-5.77,2.88H49.71a7.21,7.21,0,0,1-6.94-9.21l7.64-26.55a33.88,33.88,0,0,0,33.4,28.43H95.49a33.88,33.88,0,0,0,33.4-28.43l7.64,26.55A7.16,7.16,0,0,1,135.36,148.74Z"/><circle cx="108.29" cy="92.16" r="2.46"/><circle cx="72.18" cy="92.16" r="2.46"/><path class="cls-4" d="M75.82,66.61a1.08,1.08,0,0,1-1.53.12,5.8,5.8,0,0,0-3.94-1.24,5.82,5.82,0,0,0-3.88,2.65,1.1,1.1,0,0,1-.88.44,1.09,1.09,0,0,1-.88-1.73,7.86,7.86,0,0,1,5.41-3.53,8,8,0,0,1,5.58,1.76A1.08,1.08,0,0,1,75.82,66.61Z"/><path class="cls-5" d="M116,68.36a1,1,0,0,1-.64.21,1.09,1.09,0,0,1-.88-.44,5.05,5.05,0,0,0-7.82-1.4,1.09,1.09,0,0,1-1.43-1.65,8,8,0,0,1,5.58-1.76,7.87,7.87,0,0,1,5.42,3.53A1.09,1.09,0,0,1,116,68.36Z"/><path class="cls-6" d="M116.85,52.05a65.42,65.42,0,0,1-.5-7.82c-5.68,13-18.13,23-36.57,29.22a131.62,131.62,0,0,1-32.28,6.2v29.52A35.67,35.67,0,0,0,83.12,144.8H96.18a35.67,35.67,0,0,0,35.63-35.63v-30C123.58,73.72,118.42,64.38,116.85,52.05Zm-11.6,13a8,8,0,0,1,5.58-1.76,7.87,7.87,0,0,1,5.42,3.53,1.09,1.09,0,0,1-.24,1.52,1,1,0,0,1-.64.21,1.09,1.09,0,0,1-.88-.44,5.05,5.05,0,0,0-7.82-1.4,1.09,1.09,0,0,1-1.43-1.65ZM57.19,92.16a15,15,0,1,1,15,15A15,15,0,0,1,57.19,92.16Zm40.59,38.28a15.55,15.55,0,0,1-8.84,2.86,15.94,15.94,0,0,1-9-2.9,1.09,1.09,0,0,1,1.35-1.72,13,13,0,0,0,15.3,0,1.09,1.09,0,0,1,1.22,1.8Zm-13.06-4a1.1,1.1,0,0,1,1.09-1.09h6.13a1.09,1.09,0,1,1,0,2.18H85.8A1.09,1.09,0,0,1,84.71,126.45Zm14.6-1.8a1.09,1.09,0,0,1-1.54.09l-3.4-3a1,1,0,0,0-1.13.07l-2.36,1.83a3.18,3.18,0,0,1-3.93,0l-2.41-1.91a1,1,0,0,0-1-.15L80,124.75a1.09,1.09,0,1,1-1.45-1.63l3.7-3.28a.91.91,0,0,1,.22-.15,3.19,3.19,0,0,1,3.45.32l2.42,1.91a1,1,0,0,0,1.24,0l2.36-1.83a3.2,3.2,0,0,1,3.72-.14l.12.09,3.46,3.08A1.08,1.08,0,0,1,99.31,124.66Zm7.89-17.49a15,15,0,1,1,15-15A15,15,0,0,1,107.2,107.16Z"/><path class="cls-3" d="M72.18,79.35A12.82,12.82,0,1,0,85,92.16,12.83,12.83,0,0,0,72.18,79.35Zm0,15.28a2.46,2.46,0,1,1,2.46-2.46A2.46,2.46,0,0,1,72.18,94.63Z"/><path class="cls-3" d="M107.2,79.35A12.82,12.82,0,1,0,120,92.16,12.83,12.83,0,0,0,107.2,79.35Zm1.08,15.28a2.46,2.46,0,1,1,2.46-2.46A2.46,2.46,0,0,1,108.29,94.63Z"/><path class="cls-4" d="M131.81,54.83V76.49C116,64.78,118.46,40,119,35.61A20.9,20.9,0,0,1,131.81,54.83Z"/><path class="cls-4" d="M110.95,34H68.35A20.88,20.88,0,0,0,47.49,54.83V77.47a129.3,129.3,0,0,0,31.63-6.1c22-7.41,34.69-19.69,37.82-36.52A20.67,20.67,0,0,0,110.95,34ZM75.82,66.61a1.08,1.08,0,0,1-1.53.12,5.8,5.8,0,0,0-3.94-1.24,5.82,5.82,0,0,0-3.88,2.65,1.1,1.1,0,0,1-.88.44,1.09,1.09,0,0,1-.88-1.73,7.86,7.86,0,0,1,5.41-3.53,8,8,0,0,1,5.58,1.76A1.08,1.08,0,0,1,75.82,66.61Z"/><path class="cls-7" d="M143.27,88.91v6.51a9.22,9.22,0,0,1-9.21,9.21h-2.25V79.7h2.25A9.22,9.22,0,0,1,143.27,88.91Z"/><path class="cls-7" d="M47.49,79.7v24.93H45.33a9.22,9.22,0,0,1-9.21-9.21V88.91a9.22,9.22,0,0,1,9.21-9.21Z"/><path class="cls-8" d="M116.85,52.05a65.42,65.42,0,0,1-.5-7.82c-5.68,13-18.13,23-36.57,29.22a131.62,131.62,0,0,1-32.28,6.2v29.52A35.67,35.67,0,0,0,83.12,144.8H96.18a35.67,35.67,0,0,0,35.63-35.63v-30C123.58,73.72,118.42,64.38,116.85,52.05Z"/><path class="cls-8" d="M33.93,88.91v6.51a9.22,9.22,0,0,0,9.21,9.21h2.17V79.7H43.14A9.22,9.22,0,0,0,33.93,88.91Z"/><path class="cls-8" d="M116.95,34.85a20.67,20.67,0,0,0-6-.88H68.35A20.88,20.88,0,0,0,47.49,54.83V77.47a129.3,129.3,0,0,0,31.63-6.1C101.09,64,113.81,51.68,116.95,34.85Z"/><path class="cls-8" d="M136.24,104.63a9.22,9.22,0,0,0,9.21-9.21V88.91a9.22,9.22,0,0,0-9.21-9.21H134v24.93Z"/><path class="cls-8" d="M131.81,76.49V54.83A20.9,20.9,0,0,0,119,35.61C118.46,40,116,64.78,131.81,76.49Z"/><path class="cls-4" d="M47.49,77.47V54.83A20.88,20.88,0,0,1,68.35,34h42.6a20.67,20.67,0,0,1,6,.88c0-.1,0-.2.06-.31l2.14.38s0,.26-.1.68a20.9,20.9,0,0,1,12.76,19.22V76.49c.48.36,1,.71,1.49,1H134V54.83a23.07,23.07,0,0,0-23-23H68.35a23.07,23.07,0,0,0-23,23V77.52H46.4Z"/><path class="cls-4" d="M119,35.61a20.62,20.62,0,0,0-2.1-.76C113.81,51.68,101.09,64,79.12,71.37a129.3,129.3,0,0,1-31.63,6.1v2.18a131.62,131.62,0,0,0,32.28-6.2c18.44-6.21,30.9-16.21,36.57-29.22a65.42,65.42,0,0,0,.5,7.82c1.57,12.32,6.73,21.67,15,27.09V76.49C116,64.78,118.46,40,119,35.61Z"/><path class="cls-4" d="M46.44,79.7l1.05-.05V77.47l-1.09.05H45.31V79.7Z"/><path class="cls-4" d="M119.15,34.92,117,34.55c0,.1,0,.2-.06.31a20.62,20.62,0,0,1,2.1.76C119.11,35.19,119.15,34.95,119.15,34.92Z"/><path class="cls-4" d="M131.81,76.49v2.66l.59.39.27.17H134V77.52h-.69C132.78,77.19,132.29,76.84,131.81,76.49Z"/><path class="cls-9" d="M97.77,130.44a15.55,15.55,0,0,1-8.84,2.86,15.94,15.94,0,0,1-9-2.9,1.09,1.09,0,0,1,1.35-1.72,13,13,0,0,0,15.3,0,1.09,1.09,0,0,1,1.22,1.8Z"/><path class="cls-9" d="M99.31,124.66a1.09,1.09,0,0,1-1.54.09l-3.4-3a1,1,0,0,0-1.13.07l-2.36,1.83a3.18,3.18,0,0,1-3.93,0l-2.41-1.91a1,1,0,0,0-1-.15L80,124.75a1.09,1.09,0,1,1-1.45-1.63l3.7-3.28a.91.91,0,0,1,.22-.15,3.19,3.19,0,0,1,3.45.32l2.42,1.91a1,1,0,0,0,1.24,0l2.36-1.83a3.2,3.2,0,0,1,3.72-.14l.12.09,3.46,3.08A1.08,1.08,0,0,1,99.31,124.66Z"/><path class="cls-9" d="M93,126.45a1.09,1.09,0,0,1-1.09,1.09H85.8a1.09,1.09,0,1,1,0-2.18h6.13A1.09,1.09,0,0,1,93,126.45Z"/></g></g></svg>