<svg xmlns="http://www.w3.org/2000/svg" viewBox="0 0 178.04 178.04"><defs><style>.cls-1{fill:#9bdd80;}.cls-2{fill:#7fbf5e;}.cls-3{fill:#ddb6a2;}.cls-4{fill:#4d4d4d;}.cls-5{fill:#eac4b0;}.cls-6{fill:#956b84;}.cls-7{fill:#fff;}</style></defs><title>Asset 2</title><g id="Layer_2" data-name="Layer 2"><g id="Layer_1-2" data-name="Layer 1"><path class="cls-1" d="M178,89a88.93,88.93,0,1,1-2.18-19.66A89,89,0,0,1,178,89Z"/><path class="cls-2" d="M178,89A89.07,89.07,0,0,1,57.33,172.23L51.8,128.78l73.38-92.05,50.68,32.63A89,89,0,0,1,178,89Z"/><path class="cls-3" d="M46.4,78.33v25.48H44.18a9.43,9.43,0,0,1-9.41-9.41V87.75a9.43,9.43,0,0,1,9.41-9.41Z"/><path class="cls-3" d="M144.27,87.75V94.4a9.43,9.43,0,0,1-9.41,9.41h-2.3V78.33h2.3A9.43,9.43,0,0,1,144.27,87.75Z"/><circle class="cls-4" cx="117.76" cy="86.16" r="2.52"/><circle class="cls-4" cx="78.15" cy="86.16" r="2.52"/><path class="cls-5" d="M128.32,86.67a1.33,1.33,0,0,1,0,.17A17.83,17.83,0,0,1,92.71,88H88.09a17.83,17.83,0,0,1-35.62-1.11,1.31,1.31,0,0,1,0-.17H46.4v21.78a36.45,36.45,0,0,0,36.41,36.41H96.15a36.45,36.45,0,0,0,36.41-36.41V86.67ZM101.1,127.89H96c-.61,1.72-2.49,4-6.67,4s-6.07-2.3-6.67-4H77.6a4.72,4.72,0,0,1-4-7.16l1.73-2.87a4.72,4.72,0,0,1,4-2.27h20a4.72,4.72,0,0,1,4,2.27l1.73,2.87A4.72,4.72,0,0,1,101.1,127.89Z"/><path class="cls-5" d="M93.54,127.89c-.55.82-1.73,1.78-4.19,1.78s-3.65-1-4.2-1.78Z"/><path class="cls-4" d="M132.56,52.92V84.44H129.5c.11-4,.08-16.93-4.53-21.8a6.31,6.31,0,0,0-2.72-1.75,25.8,25.8,0,0,0,2.07-5.55c1.26-5.18.31-9.61-2.71-12.88V42a24.34,24.34,0,0,0,4.84-4A21.25,21.25,0,0,1,132.56,52.92Z"/><path class="cls-4" d="M55.73,55.37A25.53,25.53,0,0,0,57.8,60.9a6.31,6.31,0,0,0-2.72,1.75c-4.61,4.88-4.64,17.79-4.54,21.8H46.4V52.92a21.22,21.22,0,0,1,5.4-14.16A36,36,0,0,0,58,43C55.31,46.21,54.54,50.46,55.73,55.37Z"/><path class="cls-5" d="M127.27,80.82a17.82,17.82,0,0,0-34.56,4.91H88.09a17.82,17.82,0,0,0-35.32-2.1c-.06-4.43.18-15.49,3.94-19.46a3.78,3.78,0,0,1,2.85-1.3h2l-1.08-1.72c-.07-.1-6.5-10.45-.51-17.07,5.76,2.85,15.48,6.2,29.39,6.2h.1c14.48,0,24.08-3.54,29.92-6.88l.3.3c6.6,6.6-.08,17.34-.15,17.45l-1.08,1.72h2a3.8,3.8,0,0,1,2.85,1.3C126.46,67.46,127.16,75.6,127.27,80.82Z"/><path class="cls-4" d="M124.82,36.5a23.3,23.3,0,0,1-4.92,4c-5.35,3.43-15,7.53-30.42,7.56-13.71,0-23.2-3.3-28.72-6.09a36.51,36.51,0,0,1-7.28-4.71c.51-.42,1.18-1,2-1.74a21.17,21.17,0,0,1,12.28-3.92h43.53A21.26,21.26,0,0,1,124.82,36.5Z"/><path class="cls-4" d="M132.56,84.44H129.5c.11-4,.08-16.93-4.53-21.8a6.31,6.31,0,0,0-2.72-1.75,25.79,25.79,0,0,0,2.07-5.55c1.26-5.18.31-9.61-2.71-12.88v-1h-2.23v1.95l0,0,.3.3c6.6,6.6-.08,17.34-.15,17.45l-1.08,1.72h2a3.8,3.8,0,0,1,2.85,1.3c3.11,3.28,3.81,11.43,3.92,16.64.06,2.7,0,4.62,0,4.68l-.06,1.17h5.39Z"/><path class="cls-4" d="M61.58,62.87h-2a3.78,3.78,0,0,0-2.85,1.3c-3.76,4-4,15-3.94,19.46,0,1.13.05,1.83.05,1.86l.07,1.17H46.4V84.44h4.15c-.1-4-.07-16.92,4.54-21.8a6.31,6.31,0,0,1,2.72-1.75,25.54,25.54,0,0,1-2.07-5.53C54.54,50.46,55.31,46.21,58,43c.24-.28.49-.56.76-.83l1.58,1.57-.31.33c-6,6.63.44,17,.51,17.07Z"/><path class="cls-4" d="M124.81,36.49a23.3,23.3,0,0,1-4.92,4c-5.35,3.43-15,7.53-30.42,7.56-13.71,0-23.2-3.3-28.72-6.09a36.51,36.51,0,0,1-7.28-4.71l-.1-.09q-.48.43-.91.89c-.23.23-.45.46-.65.7A36,36,0,0,0,58,43c.56.31,1.16.63,1.79,1l.24.12c5.76,2.85,15.48,6.2,29.39,6.2h.1c14.48,0,24.08-3.54,29.92-6.88.6-.35,1.17-.69,1.69-1l.51-.33a24.35,24.35,0,0,0,4.84-4Z"/><path class="cls-6" d="M88.09,85.73a17.82,17.82,0,0,0-35.32-2.1,16.4,16.4,0,0,0-.29,3,1.31,1.31,0,0,0,0,.17A17.83,17.83,0,0,0,88.09,88c0-.36,0-.74,0-1.11S88.11,86.09,88.09,85.73ZM70.29,102.44a15.6,15.6,0,1,1,15.6-15.6A15.62,15.62,0,0,1,70.29,102.44Z"/><path class="cls-7" d="M70.29,71.24a15.6,15.6,0,1,0,15.6,15.6A15.62,15.62,0,0,0,70.29,71.24Zm7.85,17.43a2.52,2.52,0,1,1,2.52-2.52A2.52,2.52,0,0,1,78.15,88.68Z"/><path class="cls-6" d="M128.32,86.67a17.42,17.42,0,0,0-1-5.85,17.82,17.82,0,0,0-34.56,4.91c0,.36,0,.74,0,1.11s0,.75,0,1.11a17.83,17.83,0,0,0,35.62-1.11A1.33,1.33,0,0,0,128.32,86.67ZM110.5,102.44a15.6,15.6,0,1,1,15.6-15.6A15.62,15.62,0,0,1,110.5,102.44Z"/><path class="cls-7" d="M110.5,71.24a15.6,15.6,0,1,0,15.6,15.6A15.62,15.62,0,0,0,110.5,71.24Zm7.27,17.43a2.52,2.52,0,1,1,2.52-2.52A2.52,2.52,0,0,1,117.76,88.68Z"/><rect class="cls-6" x="87.01" y="85.73" width="6.78" height="2.23"/><path class="cls-4" d="M101.1,127.89H77.61a4.72,4.72,0,0,1-4-7.16l1.73-2.87a4.72,4.72,0,0,1,4-2.27h20a4.72,4.72,0,0,1,4,2.27l1.73,2.87A4.71,4.71,0,0,1,101.1,127.89Z"/><path class="cls-4" d="M96,127.89c-.61,1.72-2.49,4-6.67,4s-6.07-2.3-6.67-4h2.47c.55.82,1.73,1.78,4.2,1.78s3.64-1,4.19-1.78Z"/></g></g></svg>