<svg xmlns="http://www.w3.org/2000/svg" viewBox="0 0 232.33 111.38"><defs><style>.cls-1{fill:#27618c;}.cls-2{fill:#fff;}</style></defs><title>Asset 1</title><g id="Layer_2" data-name="Layer 2"><g id="Layer_1-2" data-name="Layer 1"><path class="cls-1" d="M126.68,73.17a9.94,9.94,0,1,0,9.94,9.94A9.94,9.94,0,0,0,126.68,73.17Zm0,16.4a6.45,6.45,0,1,1,6.45-6.45A6.45,6.45,0,0,1,126.68,89.56Z"/><path class="cls-2" d="M7.41,4.25,19.19,34.48,31.49,2.05,43.27,34.48,55.78,4.25h7.41L43,52.35,31.35,20.3,19.22,52.38,0,4.25Z"/><path class="cls-2" d="M64.56,0h6.59V23.32a11.35,11.35,0,0,1,7.76-3.16,10,10,0,0,1,7.73,3.13Q89.11,26,89.11,32V49.48H82.52V32.61q0-3.43-1.22-5a4.69,4.69,0,0,0-3.91-1.54q-3.46,0-4.86,2.14t-1.38,7.44v13.8H64.56Z"/><path class="cls-2" d="M91.46,9.08a4.08,4.08,0,0,1,1.26-3,4.28,4.28,0,0,1,6.06,0,4.06,4.06,0,0,1,1.26,3,4.15,4.15,0,0,1-1.26,3,4.06,4.06,0,0,1-3,1.26,4.15,4.15,0,0,1-3-1.26A4.18,4.18,0,0,1,91.46,9.08Zm7.59,11.87V49.48H92.46V20.95Z"/><path class="cls-2" d="M121.84,20.16l1.43,5.94-11.93,0a2.2,2.2,0,0,0-1.55.6,2,2,0,0,0-.64,1.54q0,1.64,3.81,3.25,5.24,2.26,7.06,4.16a7.12,7.12,0,0,1,1.82,5.13,9,9,0,0,1-3,6.91,10.37,10.37,0,0,1-7.15,2.64q-7.18,0-10.17-7l5.63-2.61a12.22,12.22,0,0,0,1.79,2.61,4.08,4.08,0,0,0,2.87,1.11q3.34,0,3.34-3,0-1.76-2.58-3.28l-2-1-2-1a12.36,12.36,0,0,1-4-2.81,6.93,6.93,0,0,1-1.49-4.6,8.14,8.14,0,0,1,2.55-6.15,8.94,8.94,0,0,1,6.33-2.43Z"/><path class="cls-2" d="M133.54,26.1V49.48H127V26.1h-5.42V20.16H127V10.49h6.59v9.65h5.13v6Z"/><path class="cls-2" d="M148.33,0V59.48h-6.59V0Z"/><path class="cls-2" d="M178.94,36.77H158.49a8.67,8.67,0,0,0,2.29,5.6A7,7,0,0,0,166,44.41,6.75,6.75,0,0,0,170,43.24a16.67,16.67,0,0,0,3.6-4.34L179.21,42a22.2,22.2,0,0,1-2.72,3.76,14.49,14.49,0,0,1-3.08,2.58,12.34,12.34,0,0,1-3.54,1.48,17.26,17.26,0,0,1-4.13.47,13.43,13.43,0,0,1-10.25-4.1q-3.87-4.13-3.87-11t3.75-11a12.93,12.93,0,0,1,10-4.13q6.3,0,10,4t3.63,11Zm-6.77-5.39q-1.38-5.27-6.65-5.27a6.83,6.83,0,0,0-2.26.37,6.45,6.45,0,0,0-1.92,1.05,6.69,6.69,0,0,0-1.48,1.66,7.69,7.69,0,0,0-.94,2.2Z"/><path class="cls-2" d="M64.56,97.62V52.38h6.8a29.76,29.76,0,0,1,7.24.7,10.87,10.87,0,0,1,4.6,2.37,12.31,12.31,0,0,1,3,4.31A13,13,0,0,1,87.35,65a10.69,10.69,0,0,1-3.72,8.23,10.93,10.93,0,0,1,5.68,4.31,12.75,12.75,0,0,1-1.64,16.05,12.31,12.31,0,0,1-5.07,3.13,29.48,29.48,0,0,1-7.71.85Zm6.83-25.81h2.14q3.81,0,5.58-1.68a6.53,6.53,0,0,0,1.77-5,6.23,6.23,0,0,0-1.82-4.85,7.57,7.57,0,0,0-5.27-1.66h-2.4Zm0,19.39H75.6q4.63,0,6.8-1.82a6.28,6.28,0,0,0,2.29-5,6.38,6.38,0,0,0-2.2-4.92q-2.14-2-7.65-2H71.38Z"/><path class="cls-2" d="M99.05,48.13V97.62H92.46V48.13Z"/><path class="cls-2" d="M146.73,68.56l7.47,16.29,8.06-18.9,8.12,18.9,7.38-16.29h7.38L170.2,99.23l-7.94-18.37-8,18.37L139.32,68.56Z"/><path class="cls-2" d="M209.79,84.13H189.34a8.67,8.67,0,0,0,2.29,5.6,7,7,0,0,0,5.19,2.05,6.75,6.75,0,0,0,4.07-1.17,16.67,16.67,0,0,0,3.6-4.34l5.57,3.11a22.14,22.14,0,0,1-2.72,3.76,14.49,14.49,0,0,1-3.08,2.58,12.34,12.34,0,0,1-3.54,1.48,17.26,17.26,0,0,1-4.13.47,13.43,13.43,0,0,1-10.25-4.1q-3.87-4.13-3.87-11t3.75-11a12.93,12.93,0,0,1,10-4.13q6.3,0,10,4t3.63,11ZM203,78.74q-1.38-5.27-6.65-5.27a6.83,6.83,0,0,0-2.26.37,6.45,6.45,0,0,0-1.92,1.05,6.69,6.69,0,0,0-1.48,1.66,7.69,7.69,0,0,0-.94,2.2Z"/><path class="cls-2" d="M212,68.31h6.59v2.55a12.59,12.59,0,0,1,3.22-2.61,7.39,7.39,0,0,1,3.4-.73,10.65,10.65,0,0,1,5.45,1.7l-3,6A6.29,6.29,0,0,0,224,73.9q-5.39,0-5.39,8.14V96.84H212Z"/><line class="cls-2" x1="122.31" y1="58.72" x2="123.11" y2="53.93"/><path class="cls-2" d="M122.32,59.61h-.15a.89.89,0,0,1-.73-1l.79-4.79a.89.89,0,1,1,1.75.29l-.79,4.79A.89.89,0,0,1,122.32,59.61Z"/><line class="cls-2" x1="125.35" y1="60.61" x2="127.65" y2="56.33"/><path class="cls-2" d="M125.35,61.49a.89.89,0,0,1-.78-1.31l2.3-4.28a.89.89,0,1,1,1.56.84L126.13,61A.89.89,0,0,1,125.35,61.49Z"/><line class="cls-2" x1="127.92" y1="62.29" x2="132.19" y2="59.97"/><path class="cls-2" d="M127.92,63.18a.89.89,0,0,1-.42-1.66l4.27-2.32a.89.89,0,1,1,.85,1.56l-4.27,2.32A.88.88,0,0,1,127.92,63.18Z"/><path class="cls-2" d="M135.61,69.69h0a16.08,16.08,0,0,0-2.52-1.37l-7.39-4-1.58.86-3.88-2.32v-1.5l-16.49-9-4,8.06,10.83,9a6.45,6.45,0,0,1,1.35,7.19h0a16.12,16.12,0,1,0,23.7-7Zm-8.93,23.36a9.94,9.94,0,1,1,9.94-9.94A9.94,9.94,0,0,1,126.68,93.05Z"/><path class="cls-2" d="M68.39,102.37l-.92.55a1.58,1.58,0,0,0-.49-.59,1.15,1.15,0,0,0-.63-.16,1.17,1.17,0,0,0-.79.27.83.83,0,0,0-.31.66q0,.55.82.89l.75.31a3.2,3.2,0,0,1,1.34.91,2,2,0,0,1,.42,1.31,2.3,2.3,0,0,1-.69,1.72,2.38,2.38,0,0,1-1.73.68,2.32,2.32,0,0,1-1.62-.58,2.68,2.68,0,0,1-.79-1.64l1.15-.25a2,2,0,0,0,.27.92,1.3,1.3,0,0,0,1.91.13,1.23,1.23,0,0,0,.35-.9,1.26,1.26,0,0,0-.06-.4,1,1,0,0,0-.19-.34,1.53,1.53,0,0,0-.33-.29,3.16,3.16,0,0,0-.49-.26l-.73-.3a2.09,2.09,0,0,1-1.55-1.91,1.82,1.82,0,0,1,.65-1.42,2.35,2.35,0,0,1,1.62-.58A2.26,2.26,0,0,1,68.39,102.37Z"/><path class="cls-2" d="M70.85,111.37h-1.1V104h1.1v.52a2,2,0,0,1,1.47-.65,2.06,2.06,0,0,1,1.62.72,2.61,2.61,0,0,1,.64,1.81,2.57,2.57,0,0,1-.64,1.78,2.08,2.08,0,0,1-3.1,0Zm2.61-4.94a1.64,1.64,0,0,0-.37-1.11,1.2,1.2,0,0,0-.95-.43,1.25,1.25,0,0,0-1,.42,1.59,1.59,0,0,0-.38,1.1,1.63,1.63,0,0,0,.38,1.1,1.23,1.23,0,0,0,1,.42,1.19,1.19,0,0,0,.94-.43A1.56,1.56,0,0,0,73.46,106.43Z"/><path class="cls-2" d="M80.08,106.66H76.67a1.44,1.44,0,0,0,.38.93,1.16,1.16,0,0,0,.86.34,1.13,1.13,0,0,0,.68-.2,2.77,2.77,0,0,0,.6-.72l.93.52a3.7,3.7,0,0,1-.45.63,2.46,2.46,0,0,1-.51.43,2.07,2.07,0,0,1-.59.25,2.89,2.89,0,0,1-.69.08,2.24,2.24,0,0,1-1.71-.68,2.56,2.56,0,0,1-.64-1.83,2.64,2.64,0,0,1,.63-1.83,2.38,2.38,0,0,1,3.33,0,2.63,2.63,0,0,1,.61,1.84Zm-1.13-.9a1.05,1.05,0,0,0-1.11-.88,1.16,1.16,0,0,0-.38.06,1.09,1.09,0,0,0-.32.18,1.13,1.13,0,0,0-.25.28,1.28,1.28,0,0,0-.16.37Z"/><path class="cls-2" d="M84.78,104h1.1v4.76h-1.1v-.5a2.11,2.11,0,0,1-3.09-.08,2.65,2.65,0,0,1-.64-1.82,2.57,2.57,0,0,1,.64-1.78,2.06,2.06,0,0,1,1.6-.71,2,2,0,0,1,1.49.68Zm-2.61,2.36a1.66,1.66,0,0,0,.37,1.11,1.2,1.2,0,0,0,.95.43,1.26,1.26,0,0,0,1-.42,1.81,1.81,0,0,0,0-2.21,1.24,1.24,0,0,0-1-.42,1.22,1.22,0,0,0-.95.43A1.58,1.58,0,0,0,82.17,106.39Z"/><path class="cls-2" d="M88.37,100.54v5L89.92,104h1.47l-2.07,2,2.22,2.76H90.12l-1.57-2-.18.18v1.83h-1.1v-8.25Z"/><path class="cls-2" d="M95.17,105a3.69,3.69,0,0,1,1.17-2.73,3.84,3.84,0,0,1,2.79-1.14,3.94,3.94,0,0,1,3.92,3.92,3.71,3.71,0,0,1-1.16,2.76,4,4,0,0,1-5.44.13A3.7,3.7,0,0,1,95.17,105Zm1.15,0a2.72,2.72,0,0,0,.84,2.06,2.78,2.78,0,0,0,3.93,0,2.93,2.93,0,0,0,0-4,2.81,2.81,0,0,0-4,0A2.72,2.72,0,0,0,96.32,105Z"/><path class="cls-2" d="M105.37,104v2.73q0,1.18.93,1.18t.93-1.18V104h1.1v2.75a3.07,3.07,0,0,1-.14,1,1.66,1.66,0,0,1-.47.67,2.31,2.31,0,0,1-2.83,0,1.68,1.68,0,0,1-.48-.67,2.72,2.72,0,0,1-.14-1V104Z"/><path class="cls-2" d="M110.86,105.05v3.73h-1.1v-3.73h-.47v-1h.47v-1.74h1.1V104h.85v1Z"/><path class="cls-2" d="M119,104h1.1v4.76H119v-.5a2.11,2.11,0,0,1-3.09-.08,2.65,2.65,0,0,1-.64-1.82,2.57,2.57,0,0,1,.64-1.78,2.06,2.06,0,0,1,1.6-.71,2,2,0,0,1,1.49.68Zm-2.61,2.36a1.66,1.66,0,0,0,.37,1.11,1.2,1.2,0,0,0,.95.43,1.26,1.26,0,0,0,1-.42,1.81,1.81,0,0,0,0-2.21,1.24,1.24,0,0,0-1-.42,1.22,1.22,0,0,0-.95.43A1.58,1.58,0,0,0,116.44,106.39Z"/><path class="cls-2" d="M126.14,108.67c0,.22,0,.42,0,.59a4.13,4.13,0,0,1-.06.45,2,2,0,0,1-.46.92,2.22,2.22,0,0,1-1.77.74,2.37,2.37,0,0,1-1.57-.51,2.09,2.09,0,0,1-.73-1.46h1.1a1.25,1.25,0,0,0,.21.54,1.18,1.18,0,0,0,1,.44q1.21,0,1.21-1.48v-.66a2,2,0,0,1-1.51.67,2,2,0,0,1-1.59-.7,2.61,2.61,0,0,1-.62-1.78,2.75,2.75,0,0,1,.58-1.77,2,2,0,0,1,1.65-.77,1.92,1.92,0,0,1,1.49.67V104h1.1Zm-1.05-2.26a1.6,1.6,0,0,0-.37-1.11,1.23,1.23,0,0,0-1-.42,1.18,1.18,0,0,0-1,.46,1.91,1.91,0,0,0,0,2.14,1.18,1.18,0,0,0,1,.45,1.21,1.21,0,0,0,1-.46A1.63,1.63,0,0,0,125.08,106.42Z"/><path class="cls-2" d="M131,104h1.1v4.76H131v-.5a2.11,2.11,0,0,1-3.09-.08,2.65,2.65,0,0,1-.64-1.82,2.57,2.57,0,0,1,.64-1.78,2.06,2.06,0,0,1,1.6-.71,2,2,0,0,1,1.49.68Zm-2.61,2.36a1.66,1.66,0,0,0,.37,1.11,1.2,1.2,0,0,0,.95.43,1.26,1.26,0,0,0,1-.42,1.81,1.81,0,0,0,0-2.21,1.24,1.24,0,0,0-1-.42,1.22,1.22,0,0,0-.95.43A1.58,1.58,0,0,0,128.42,106.39Z"/><path class="cls-2" d="M133.36,102a.68.68,0,0,1,.21-.5.71.71,0,0,1,1,0,.68.68,0,0,1,.21.5.69.69,0,0,1-.21.51.68.68,0,0,1-.5.21.72.72,0,0,1-.72-.72Zm1.26,2v4.76h-1.1V104Z"/><path class="cls-2" d="M136,104h1.1v.44a1.8,1.8,0,0,1,1.3-.57,1.64,1.64,0,0,1,1.29.52,2.14,2.14,0,0,1,.4,1.45v2.92H139v-2.66a1.74,1.74,0,0,0-.2-1,.79.79,0,0,0-.69-.27.85.85,0,0,0-.78.36,2.48,2.48,0,0,0-.22,1.25v2.29H136Z"/><path class="cls-2" d="M144.26,104.84l-.91.48q-.21-.44-.53-.44a.36.36,0,0,0-.26.1.33.33,0,0,0-.11.26q0,.27.63.54a3.78,3.78,0,0,1,1.18.69,1.19,1.19,0,0,1,.3.85,1.5,1.5,0,0,1-.51,1.15,1.82,1.82,0,0,1-2.89-.73l.94-.43a2,2,0,0,0,.3.43.68.68,0,0,0,.48.19q.56,0,.56-.51,0-.29-.43-.55l-.33-.16-.34-.16a2.07,2.07,0,0,1-.67-.47,1.15,1.15,0,0,1-.25-.77,1.36,1.36,0,0,1,.42-1,1.49,1.49,0,0,1,1.05-.41A1.44,1.44,0,0,1,144.26,104.84Z"/><path class="cls-2" d="M146.69,105.05v3.73h-1.1v-3.73h-.47v-1h.47v-1.74h1.1V104h.85v1Z"/><path class="cls-2" d="M152.72,104.19H156v-2.95h1.14v7.54H156v-3.52h-3.25v3.52h-1.14v-7.54h1.14Z"/><path class="cls-2" d="M159.81,104v2.73q0,1.18.93,1.18t.93-1.18V104h1.1v2.75a3.07,3.07,0,0,1-.14,1,1.66,1.66,0,0,1-.47.67,2.31,2.31,0,0,1-2.83,0,1.68,1.68,0,0,1-.48-.67,2.72,2.72,0,0,1-.14-1V104Z"/><path class="cls-2" d="M164.16,104h1.1v.44a2.28,2.28,0,0,1,.54-.45,1.32,1.32,0,0,1,.6-.12,1.46,1.46,0,0,1,1.27.7,1.65,1.65,0,0,1,1.4-.7q1.61,0,1.61,1.95v2.94h-1.1v-2.64a2,2,0,0,0-.17-1,.6.6,0,0,0-.56-.29.72.72,0,0,0-.66.34,2.2,2.2,0,0,0-.21,1.1v2.46h-1.1v-2.63q0-1.27-.73-1.27a.73.73,0,0,0-.68.35,2.16,2.16,0,0,0-.21,1.09v2.46h-1.1Z"/><path class="cls-2" d="M175.57,104h1.1v4.76h-1.1v-.5a2.11,2.11,0,0,1-3.09-.08,2.65,2.65,0,0,1-.64-1.82,2.57,2.57,0,0,1,.64-1.78,2.06,2.06,0,0,1,1.6-.71,2,2,0,0,1,1.49.68ZM173,106.39a1.66,1.66,0,0,0,.37,1.11,1.2,1.2,0,0,0,.95.43,1.26,1.26,0,0,0,1-.42,1.81,1.81,0,0,0,0-2.21,1.24,1.24,0,0,0-1-.42,1.22,1.22,0,0,0-.95.43A1.58,1.58,0,0,0,173,106.39Z"/><path class="cls-2" d="M178.06,104h1.1v.44a1.8,1.8,0,0,1,1.3-.57,1.64,1.64,0,0,1,1.29.52,2.14,2.14,0,0,1,.4,1.45v2.92h-1.1v-2.66a1.74,1.74,0,0,0-.2-1,.79.79,0,0,0-.69-.27.85.85,0,0,0-.78.36,2.48,2.48,0,0,0-.22,1.25v2.29h-1.1Z"/><path class="cls-2" d="M188.92,102.31v6.47h-1.14v-6.47h-1.73v-1.07h4.6v1.07Z"/><path class="cls-2" d="M191.12,104h1.1v.42a2.09,2.09,0,0,1,.54-.43,1.24,1.24,0,0,1,.57-.12,1.78,1.78,0,0,1,.91.28l-.5,1a1.05,1.05,0,0,0-.61-.22q-.9,0-.9,1.36v2.47h-1.1Z"/><path class="cls-2" d="M198.29,104h1.1v4.76h-1.1v-.5a2.11,2.11,0,0,1-3.09-.08,2.65,2.65,0,0,1-.64-1.82,2.57,2.57,0,0,1,.64-1.78,2.06,2.06,0,0,1,1.6-.71,2,2,0,0,1,1.49.68Zm-2.61,2.36a1.66,1.66,0,0,0,.37,1.11,1.2,1.2,0,0,0,.95.43,1.26,1.26,0,0,0,1-.42,1.81,1.81,0,0,0,0-2.21,1.24,1.24,0,0,0-1-.42,1.22,1.22,0,0,0-.95.43A1.58,1.58,0,0,0,195.69,106.39Z"/><path class="cls-2" d="M201.92,105.05v3.73h-1.1v-3.73h-.39v-1h.39v-1.84a2,2,0,0,1,.31-1.27,1.53,1.53,0,0,1,1.25-.52,2.14,2.14,0,0,1,.74.17v1.12l-.11-.06a1.39,1.39,0,0,0-.59-.18.4.4,0,0,0-.4.21,2,2,0,0,0-.1.79V104h1.2v1Z"/><path class="cls-2" d="M205.22,105.05v3.73h-1.1v-3.73h-.39v-1h.39v-1.84a2,2,0,0,1,.31-1.27,1.53,1.53,0,0,1,1.25-.52,2.14,2.14,0,0,1,.74.17v1.12l-.11-.06a1.39,1.39,0,0,0-.59-.18.4.4,0,0,0-.4.21,2,2,0,0,0-.1.79V104h1.2v1Z"/><path class="cls-2" d="M207.1,102a.68.68,0,0,1,.21-.5.71.71,0,0,1,1,0,.68.68,0,0,1,.21.5.69.69,0,0,1-.21.51.68.68,0,0,1-.5.21.72.72,0,0,1-.72-.72Zm1.26,2v4.76h-1.1V104Z"/><path class="cls-2" d="M213.45,104.23v1.46a2.68,2.68,0,0,0-.67-.63,1.31,1.31,0,0,0-.69-.18,1.36,1.36,0,0,0-1,.43,1.52,1.52,0,0,0-.41,1.09,1.56,1.56,0,0,0,.4,1.1,1.33,1.33,0,0,0,1,.43,1.39,1.39,0,0,0,.7-.17,2.76,2.76,0,0,0,.69-.64v1.45a2.88,2.88,0,0,1-1.34.35,2.56,2.56,0,0,1-1.85-.71,2.38,2.38,0,0,1-.74-1.78,2.41,2.41,0,0,1,.75-1.8,2.54,2.54,0,0,1,1.85-.73A2.76,2.76,0,0,1,213.45,104.23Z"/><path class="cls-2" d="M215.88,100.54v5l1.55-1.54h1.47l-2.07,2,2.22,2.76h-1.43l-1.57-2-.18.18v1.83h-1.1v-8.25Z"/><path class="cls-2" d="M219.59,102a.72.72,0,0,1,.71-.71.69.69,0,0,1,.51.21.68.68,0,0,1,.21.5.69.69,0,0,1-.21.51.68.68,0,0,1-.5.21.72.72,0,0,1-.72-.72Zm1.26,2v4.76h-1.1V104Z"/><path class="cls-2" d="M222.25,104h1.1v.44a1.8,1.8,0,0,1,1.3-.57,1.64,1.64,0,0,1,1.29.52,2.14,2.14,0,0,1,.4,1.45v2.92h-1.1v-2.66a1.74,1.74,0,0,0-.2-1,.79.79,0,0,0-.69-.27.85.85,0,0,0-.78.36,2.49,2.49,0,0,0-.22,1.25v2.29h-1.1Z"/><path class="cls-2" d="M232.33,108.67c0,.22,0,.42,0,.59a4.24,4.24,0,0,1-.06.45,2,2,0,0,1-.46.92,2.22,2.22,0,0,1-1.77.74,2.37,2.37,0,0,1-1.57-.51,2.1,2.1,0,0,1-.73-1.46h1.1a1.25,1.25,0,0,0,.21.54,1.18,1.18,0,0,0,1,.44q1.21,0,1.21-1.48v-.66a2.05,2.05,0,0,1-1.51.67,2,2,0,0,1-1.59-.7,2.6,2.6,0,0,1-.62-1.78,2.74,2.74,0,0,1,.58-1.77,2,2,0,0,1,1.65-.77,1.92,1.92,0,0,1,1.49.67V104h1.1Zm-1.05-2.26a1.6,1.6,0,0,0-.37-1.11,1.23,1.23,0,0,0-1-.42,1.18,1.18,0,0,0-1,.46,1.91,1.91,0,0,0,0,2.14,1.18,1.18,0,0,0,1,.45,1.21,1.21,0,0,0,1-.46A1.63,1.63,0,0,0,231.28,106.42Z"/></g></g></svg>